<svg width="560" height="360" viewBox="0 0 560 360" fill="none" xmlns="http://www.w3.org/2000/svg">
  <rect width="560" height="360" rx="36" fill="#FFF4E4"/>
  <circle cx="94" cy="88" r="56" fill="#FFCA28" fill-opacity="0.7"/>
  <circle cx="470" cy="268" r="72" fill="#D8342B" fill-opacity="0.18"/>
  <circle cx="458" cy="92" r="18" fill="#1D8C5C" fill-opacity="0.2"/>
  <path d="M168 150H384L402 272H150L168 150Z" fill="#C06E2E"/>
  <path d="M198 150C215 100 241 76 276 76C312 76 337 100 354 150" stroke="#7F4316" stroke-width="14" stroke-linecap="round"/>
  <rect x="192" y="126" width="34" height="64" rx="14" fill="#2E8B57"/>
  <rect x="238" y="112" width="42" height="82" rx="18" fill="#D8342B"/>
  <rect x="292" y="120" width="38" height="74" rx="18" fill="#005E9A"/>
  <circle cx="356" cy="136" r="22" fill="#FFCA28"/>
  <path d="M178 222H374" stroke="#F5C29A" stroke-width="10" stroke-linecap="round"/>
  <path d="M170 248H382" stroke="#F5C29A" stroke-width="10" stroke-linecap="round"/>
  <circle cx="138" cy="276" r="14" fill="#FFCA28"/>
  <circle cx="170" cy="300" r="10" fill="#D8342B" fill-opacity="0.4"/>
</svg>
